HIERARCHY
ROOT Pelvis
{
	OFFSET 0.005737 0.957955 0.007779
	CHANNELS 6 Xposition Yposition Zposition Zrotation Yrotation Xrotation 
	JOINT L_Hip
	{
		OFFSET 0.055946 -0.083912 -0.009647
		CHANNELS 3 Zrotation Yrotation Xrotation
		JOINT L_Knee
		{
			OFFSET 0.052208 -0.390400 0.003537
			CHANNELS 3 Zrotation Yrotation Xrotation
			JOINT L_Ankle
			{
				OFFSET -0.034175 -0.424165 -0.072654
				CHANNELS 3 Zrotation Yrotation Xrotation
				End Site #name: L_Foot
				{
					OFFSET 0.071823 -0.052317 0.107815
				}
			}
		}
	}
	JOINT R_Hip
	{
		OFFSET -0.059522 -0.090740 -0.013383
		CHANNELS 3 Zrotation Yrotation Xrotation
		JOINT R_Knee
		{
			OFFSET -0.045785 -0.387852 -0.032424
			CHANNELS 3 Zrotation Yrotation Xrotation
			JOINT R_Ankle
			{
				OFFSET 0.030382 -0.418739 -0.056813
				CHANNELS 3 Zrotation Yrotation Xrotation
				End Site #name: R_Foot
				{
					OFFSET -0.093219 -0.043878 0.112643
				}
			}
		}
	}
	JOINT Spine1
	{
		OFFSET -0.006142 0.126333 -0.037919
		CHANNELS 3 Zrotation Yrotation Xrotation
		JOINT Spine2
		{
			OFFSET -0.003550 0.141938 0.020804
			CHANNELS 3 Zrotation Yrotation Xrotation
			JOINT Spine3
			{
				OFFSET 0.000850 0.057043 0.007471
				CHANNELS 3 Zrotation Yrotation Xrotation
				JOINT Neck
				{
					OFFSET 0.008595 0.217310 -0.021189
					CHANNELS 3 Zrotation Yrotation Xrotation
					End Site #name: Head
					{
						OFFSET -0.007370 0.084059 0.057563
					}
				}
				JOINT L_Collar
				{
					OFFSET 0.076986 0.111201 -0.020716
					CHANNELS 3 Zrotation Yrotation Xrotation
					JOINT L_Shoulder
					{
						OFFSET 0.129352 -0.000076 -0.010777
						CHANNELS 3 Zrotation Yrotation Xrotation
						JOINT L_Elbow
						{
							OFFSET 0.024203 -0.254337 -0.040268
							CHANNELS 3 Zrotation Yrotation Xrotation
							End Site #name: L_Wrist
							{
								OFFSET 0.059899 -0.240078 0.094328
							}
						}
					}
				}
				JOINT R_Collar
				{
					OFFSET -0.076531 0.118456 -0.011338
					CHANNELS 3 Zrotation Yrotation Xrotation
					JOINT R_Shoulder
					{
						OFFSET -0.121460 -0.008513 -0.012848
						CHANNELS 3 Zrotation Yrotation Xrotation
						JOINT R_Elbow
						{
							OFFSET -0.003563 -0.261441 -0.030210
							CHANNELS 3 Zrotation Yrotation Xrotation
							End Site #name: R_Wrist
							{
								OFFSET -0.051635 -0.242764 0.104319
							}
						}
					}
				}
			}
		}
	}
}
MOTION
Frames: 9
Frame Time: 0.041667
0.006044 0.950266 0.847678 0.876610 0.094924 -1.276548 1.036699 -3.009979 -23.854318 -1.345007 -0.303023 7.691445 -3.893420 1.935579 7.185877 3.445514 -1.550406 8.405844 -0.296327 -0.244384 -3.800030 -3.188478 3.948000 -5.656588 -1.293143 0.254283 1.765652 -3.894324 0.507940 -0.103764 2.658064 2.332198 1.782412 -3.087888 2.368916 1.929879 0.967694 7.198766 0.144962 -0.871498 0.241355 1.000917 1.681742 1.498080 3.668292 -0.817843 11.019621 -0.775451 -3.946080 0.241240 -10.171274 3.095436 4.391421 -11.815670 
0.011186 0.946268 0.875746 0.377141 -0.097813 -0.559512 0.730494 -2.899993 -22.511932 -0.451786 -0.274275 4.563531 -3.339989 2.135278 6.545465 3.676769 -1.686829 9.051880 -0.350089 -0.144189 -2.540103 -4.354693 4.424736 -7.296446 -1.373100 0.221080 0.529722 -3.736294 0.492179 0.158627 2.693429 2.225094 1.738979 -2.856374 2.148673 1.496847 1.135902 6.659168 0.163839 -1.120479 0.256333 0.747307 0.981430 1.495397 4.717557 -0.434550 11.004687 -0.777739 -2.966702 0.227324 -9.222491 3.790619 4.594275 -11.123206 
0.016359 0.944797 0.907757 0.097343 -0.146133 -0.220647 0.421224 -2.780466 -21.143921 -0.388650 -0.366681 5.570983 -3.056093 1.863700 5.920876 3.482751 -1.800759 10.011663 -0.296712 -0.017229 -0.765152 -5.068071 4.760287 -8.321115 -1.642180 0.223112 -0.446204 -3.764055 0.512066 1.033171 2.730303 2.153793 1.085880 -2.304546 1.763580 1.540104 0.917648 5.993763 0.127457 -0.890499 0.229547 0.856020 1.112152 1.386846 4.054202 0.682289 10.105811 -0.728526 -2.039939 0.202457 -7.580883 3.687627 4.115155 -9.594541 
0.023834 0.946811 0.942256 0.200009 -0.151255 0.206283 -0.388931 -2.707168 -19.490593 -0.160321 -0.481938 6.370309 -3.775832 0.891449 6.207311 2.851463 -1.744020 10.377349 -0.372022 0.203325 2.009243 -4.982522 4.349510 -8.044144 -1.922453 0.196544 -2.029814 -3.797831 0.541216 2.325868 2.421527 2.069873 0.381482 -2.244264 1.680704 1.200890 0.732762 5.605854 0.099806 -0.573566 0.113459 0.225209 1.386114 1.411999 3.746913 1.475238 8.932858 -0.673158 -0.648470 0.120246 -5.768927 3.222781 3.123043 -6.802302 
0.032905 0.953529 0.979763 0.477371 -0.173695 0.539436 -1.365039 -2.538480 -17.166228 -0.325756 -0.416393 6.022418 -3.860510 0.380682 5.940125 1.826135 -1.463735 9.665021 -0.229666 0.531985 6.652398 -3.074738 3.856304 -5.477732 -2.507692 0.220554 -3.118836 -3.937680 0.564933 2.449936 2.687103 2.009394 0.207134 -2.060273 1.581332 1.458718 0.866611 5.095902 0.113335 -0.637421 0.087712 -0.131446 1.795222 1.204830 2.194660 1.493665 7.988760 -0.618556 0.736155 -0.016636 -3.408386 2.611233 2.098149 -3.967634 
0.043022 0.960209 1.016149 0.795002 -0.152610 0.655668 -2.600207 -2.257673 -14.151731 -0.345014 -0.337255 5.075063 -3.092991 0.064282 4.600066 0.167667 -0.914424 7.480544 1.103187 0.759497 14.180057 -0.873175 2.732426 -2.303888 -2.790260 0.192565 -4.363976 -4.306952 0.633948 2.985664 3.041653 1.856667 0.225364 -2.173330 1.681507 1.631202 0.917122 4.089734 0.111225 -0.718744 0.046280 -0.665483 1.711169 0.840010 0.737106 1.168977 6.727163 -0.529925 1.409069 -0.132120 -1.179150 2.460611 1.482051 -1.742838 
0.054277 0.962015 1.049601 0.830145 -0.283452 0.125760 -3.551394 -1.757709 -10.393924 -0.357442 -0.233312 3.785232 -1.427406 -0.162441 2.003867 -1.625267 -0.233452 3.552767 3.806482 0.523887 25.643493 1.867140 0.880989 1.824955 -2.710976 0.187915 -4.283654 -3.934080 0.564923 2.476735 2.780994 1.552993 0.712668 -1.755508 1.422105 1.955070 1.243674 3.636787 0.144855 -0.373846 -0.092830 -1.546181 0.322624 -0.027572 -0.625466 0.421159 5.489270 -0.411388 1.724914 -0.220520 0.731467 2.386356 1.131505 -0.424499 
0.064168 0.960403 1.079513 0.451627 -0.298650 -0.639435 -3.759341 -1.187588 -6.882777 -0.433167 -0.153495 2.956246 -0.535264 -1.106158 0.002850 -3.527306 0.470415 -2.038104 8.132557 -1.092531 39.272050 3.808343 -3.721828 6.376369 -2.164521 0.171844 -3.297558 -3.288195 0.471762 2.871682 2.278236 1.093408 0.371063 -1.230644 1.048636 1.957147 1.466360 1.106832 0.136882 -0.134279 -0.191052 -2.209502 0.190310 -0.441314 -2.070236 0.713116 3.359683 -0.290849 0.760427 -0.117785 1.466939 2.250855 1.159554 -0.791750 
0.070427 0.959471 1.105667 -0.160977 -0.375379 -1.624172 -3.751727 -0.615160 -3.472564 -0.229511 -0.132856 2.185840 0.337062 -1.034785 -1.248493 -4.627112 1.006431 -8.102627 11.414190 -3.211888 50.415049 3.417302 -7.614491 8.012035 -1.575354 0.174154 -1.457615 -2.708107 0.376777 2.417421 1.813168 0.519677 0.391031 -0.272565 0.444708 2.781741 1.797153 -1.834301 0.120059 0.345807 -0.320544 -2.898889 -0.150521 -0.715238 -2.589230 1.243951 1.474242 -0.219051 -0.153092 -0.004232 1.782347 1.837519 1.168967 -1.610012 
